<svg width="2674" height="2032" viewBox="0 0 2674 2032" fill="none" xmlns="http://www.w3.org/2000/svg">
<rect x="511" y="723" width="1765" height="1059" fill="black"/>
<rect x="514.5" y="726.5" width="1758" height="1052" stroke="white" stroke-opacity="0.5" stroke-width="7"/>
<rect x="460" y="615" width="1868" height="1121" fill="black"/>
<rect x="463.5" y="618.5" width="1861" height="1114" stroke="white" stroke-opacity="0.75" stroke-width="7"/>
<rect x="397.5" y="485.5" width="1993" height="1193" fill="black" stroke="white" stroke-width="7"/>
<path d="M2450.5 205C2450.5 258.848 2406.85 302.5 2353 302.5C2299.15 302.5 2255.5 258.848 2255.5 205C2255.5 151.152 2299.15 107.5 2353 107.5C2406.85 107.5 2450.5 151.152 2450.5 205Z" stroke="white" stroke-width="5"/>
<path d="M2504.64 51.0177C2491.23 77.3369 2501.7 109.544 2528.02 122.954C2554.34 136.365 2586.54 125.9 2599.95 99.5807C2613.36 73.2615 2602.9 41.0543 2576.58 27.644C2550.26 14.2337 2518.05 24.6985 2504.64 51.0177Z" stroke="white" stroke-width="5"/>
<path d="M304.933 1862.13C317.543 1888.84 349.419 1900.28 376.131 1887.67C402.843 1875.06 414.275 1843.18 401.666 1816.47C389.056 1789.76 357.179 1778.32 330.467 1790.93C303.755 1803.54 292.323 1835.42 304.933 1862.13Z" stroke="white" stroke-width="5"/>
<path d="M2471.34 441.381C2442.43 422.905 2424.62 399.14 2431.54 388.299C2438.47 377.459 2467.52 383.648 2496.43 402.124C2525.34 420.599 2543.16 444.365 2536.23 455.205C2529.3 466.046 2500.25 459.856 2471.34 441.381Z" fill="white"/>
<path d="M2469.68 328.628C2462.75 339.469 2480.57 363.234 2509.48 381.71C2538.39 400.186 2567.44 406.375 2574.37 395.535M2469.68 328.628C2476.61 317.788 2505.66 323.977 2534.57 342.453C2563.48 360.929 2581.3 384.694 2574.37 395.535M2469.68 328.628L2431.54 388.299M2574.37 395.535L2536.23 455.205M2431.54 388.299C2424.62 399.14 2442.43 422.905 2471.34 441.381C2500.25 459.856 2529.3 466.046 2536.23 455.205M2431.54 388.299C2438.47 377.459 2467.52 383.648 2496.43 402.124C2525.34 420.599 2543.16 444.365 2536.23 455.205" stroke="white" stroke-width="5"/>
<path d="M258.808 312.943C271.678 318.944 278.752 336.056 278.697 360.399C278.643 384.513 271.542 414.743 257.294 445.297C243.047 475.85 224.454 500.722 206.016 516.263C187.403 531.953 169.748 537.533 156.878 531.532C144.008 525.531 136.935 508.419 136.989 484.076C137.043 459.962 144.145 429.732 158.392 399.178C172.64 368.624 191.233 343.753 209.67 328.211C228.283 312.522 245.938 306.942 258.808 312.943Z" stroke="white" stroke-width="5"/>
<path d="M157.544 530.104C128.153 516.398 104.92 492.628 93.5694 462.708C82.2192 432.788 83.3372 399.907 96.6772 371.299C110.017 342.691 134.487 320.7 164.703 310.162C194.919 299.625 228.75 300.666 258.142 314.371" stroke="white" stroke-width="5"/>
<path d="M258.142 314.371C228.75 300.665 194.918 299.624 164.702 310.162C134.486 320.7 110.017 342.691 96.6769 371.299C86.3416 393.463 103.251 453.517 139.502 470.421" stroke="white" stroke-width="5"/>
<path d="M2435.71 1966.03C2437.46 1973.85 2432.28 1983.25 2420.61 1992.2C2409.12 2001.01 2392.08 2008.75 2372.2 2013.19C2352.33 2017.64 2333.61 2017.9 2319.47 2014.82C2305.1 2011.7 2296.4 2005.4 2294.65 1997.58C2292.9 1989.76 2298.09 1980.36 2309.76 1971.41C2321.24 1962.61 2338.28 1954.87 2358.16 1950.42C2378.04 1945.97 2396.75 1945.72 2410.9 1948.79C2425.27 1951.91 2433.96 1958.21 2435.71 1966.03Z" stroke="white" stroke-width="5"/>
<path d="M2294.63 1997.59C2290.33 1978.36 2293.16 1958.37 2303.35 1941.82C2313.54 1925.27 2329.77 1913.62 2348.48 1909.43C2367.2 1905.24 2386.85 1908.87 2403.12 1919.5C2419.39 1930.14 2431.43 1946.8 2435.73 1966.03" stroke="white" stroke-width="5"/>
<path d="M2435.73 1966.02C2431.43 1946.8 2419.39 1930.13 2403.12 1919.5C2386.85 1908.87 2367.2 1905.24 2348.48 1909.43C2333.99 1912.67 2311.36 1943.07 2316.66 1966.78" stroke="white" stroke-width="5"/>
<path d="M2450.43 1832.48C2448.49 1829.06 2448.25 1824.62 2449.91 1819.2C2451.57 1813.78 2455.09 1807.62 2460.3 1801.11C2470.72 1788.09 2487.55 1774.1 2508.37 1762.3C2529.18 1750.51 2549.84 1743.27 2566.36 1741.03C2574.62 1739.91 2581.71 1740.06 2587.22 1741.42C2592.72 1742.77 2596.41 1745.27 2598.34 1748.69C2600.28 1752.1 2600.52 1756.55 2598.86 1761.96C2597.19 1767.39 2593.68 1773.55 2588.46 1780.06C2578.05 1793.07 2561.22 1807.07 2540.4 1818.86C2519.59 1830.65 2498.92 1837.89 2482.41 1840.13C2474.15 1841.26 2467.06 1841.11 2461.55 1839.75C2456.05 1838.39 2452.36 1835.89 2450.43 1832.48Z" fill="white" stroke="white" stroke-width="5"/>
<path d="M2452.59 1835.28L2568.49 1902.67C2581.76 1910.38 2598.42 1900.89 2598.54 1885.54L2599.63 1751.98" stroke="white" stroke-width="5"/>
<path d="M101.407 1748.64L139.122 1847.23L240.619 1876.21L202.904 1777.62L101.407 1748.64Z" fill="white" stroke="white" stroke-width="5"/>
<path d="M37.901 1817.94L75.6161 1916.53L177.114 1945.51L139.398 1846.92L37.901 1817.94Z" stroke="white" stroke-width="5"/>
<line y1="-2.5" x2="94" y2="-2.5" transform="matrix(0.675591 -0.737278 -0.737278 -0.675591 177.549 1945.91)" stroke="white" stroke-width="5"/>
<line y1="-2.5" x2="94" y2="-2.5" transform="matrix(0.67559 -0.737278 -0.737278 -0.67559 33.7795 1814.17)" stroke="white" stroke-width="5"/>
<path d="M144.547 209.27L211.707 177.157L276.412 213.968L209.252 246.08L144.547 209.27Z" fill="white" stroke="white" stroke-width="5"/>
<path d="M147.043 139.182L214.204 107.069L278.909 143.88L211.748 175.993L147.043 139.182Z" stroke="white" stroke-width="5"/>
<line x1="283.234" y1="144.034" x2="280.737" y2="214.122" stroke="white" stroke-width="5"/>
<line x1="144.148" y1="139.079" x2="141.651" y2="209.167" stroke="white" stroke-width="5"/>
<path d="M366.723 289.473L410.372 233.827L478.68 215.499L435.03 271.146L366.723 289.473Z" fill="white" stroke="white" stroke-width="5"/>
<path d="M483.466 212.936L351.587 144.858L362.905 292.595" stroke="white" stroke-width="5"/>
<line x1="351.59" y1="144.854" x2="411.129" y2="234.965" stroke="white" stroke-width="5"/>
<path d="M691.16 1136.37C691.16 1143.5 689.793 1150.19 687.059 1156.44C684.422 1162.69 680.76 1168.15 676.072 1172.84C671.385 1177.53 665.916 1181.24 659.666 1183.97C653.416 1186.61 646.727 1187.93 639.598 1187.93H624.656C617.527 1187.93 610.789 1186.61 604.441 1183.97C598.191 1181.24 592.723 1177.53 588.035 1172.84C583.348 1168.15 579.637 1162.69 576.902 1156.44C574.266 1150.19 572.947 1143.5 572.947 1136.37V1023.57C572.947 1016.45 574.266 1009.76 576.902 1003.51C579.637 997.256 583.348 991.787 588.035 987.1C592.723 982.412 598.191 978.75 604.441 976.113C610.789 973.379 617.527 972.012 624.656 972.012H639.598C646.727 972.012 653.416 973.379 659.666 976.113C665.916 978.75 671.385 982.412 676.072 987.1C680.76 991.787 684.422 997.256 687.059 1003.51C689.793 1009.76 691.16 1016.45 691.16 1023.57V1032.07L672.264 1035V1023.57C672.264 1018.89 671.385 1014.54 669.627 1010.54C667.869 1006.44 665.477 1002.87 662.449 999.844C659.422 996.816 655.857 994.424 651.756 992.666C647.752 990.908 643.406 990.029 638.719 990.029H625.535C620.848 990.029 616.453 990.908 612.352 992.666C608.348 994.424 604.783 996.816 601.658 999.844C598.631 1002.87 596.238 1006.44 594.48 1010.54C592.723 1014.54 591.844 1018.89 591.844 1023.57V1136.37C591.844 1141.05 592.723 1145.45 594.48 1149.55C596.238 1153.55 598.631 1157.12 601.658 1160.24C604.783 1163.27 608.348 1165.66 612.352 1167.42C616.453 1169.18 620.848 1170.06 625.535 1170.06H638.719C643.406 1170.06 647.752 1169.18 651.756 1167.42C655.857 1165.66 659.422 1163.27 662.449 1160.24C665.477 1157.12 667.869 1153.55 669.627 1149.55C671.385 1145.45 672.264 1141.05 672.264 1136.37V1124.94L691.16 1128.02V1136.37ZM848.484 1136.37C848.484 1143.5 847.117 1150.19 844.383 1156.44C841.746 1162.69 838.084 1168.15 833.396 1172.84C828.709 1177.53 823.24 1181.24 816.99 1183.97C810.74 1186.61 804.051 1187.93 796.922 1187.93H781.98C774.852 1187.93 768.113 1186.61 761.766 1183.97C755.516 1181.24 750.047 1177.53 745.359 1172.84C740.672 1168.15 736.961 1162.69 734.227 1156.44C731.59 1150.19 730.271 1143.5 730.271 1136.37V1023.57C730.271 1016.45 731.59 1009.76 734.227 1003.51C736.961 997.256 740.672 991.787 745.359 987.1C750.047 982.412 755.516 978.75 761.766 976.113C768.113 973.379 774.852 972.012 781.98 972.012H796.922C804.051 972.012 810.74 973.379 816.99 976.113C823.24 978.75 828.709 982.412 833.396 987.1C838.084 991.787 841.746 997.256 844.383 1003.51C847.117 1009.76 848.484 1016.45 848.484 1023.57V1136.37ZM829.588 1023.57C829.588 1018.89 828.709 1014.54 826.951 1010.54C825.193 1006.44 822.801 1002.87 819.773 999.844C816.746 996.816 813.182 994.424 809.08 992.666C805.076 990.908 800.73 990.029 796.043 990.029H782.859C778.172 990.029 773.777 990.908 769.676 992.666C765.672 994.424 762.107 996.816 758.982 999.844C755.955 1002.87 753.562 1006.44 751.805 1010.54C750.047 1014.54 749.168 1018.89 749.168 1023.57V1136.37C749.168 1141.05 750.047 1145.45 751.805 1149.55C753.562 1153.55 755.955 1157.12 758.982 1160.24C762.107 1163.27 765.672 1165.66 769.676 1167.42C773.777 1169.18 778.172 1170.06 782.859 1170.06H796.043C800.73 1170.06 805.076 1169.18 809.08 1167.42C813.182 1165.66 816.746 1163.27 819.773 1160.24C822.801 1157.12 825.193 1153.55 826.951 1149.55C828.709 1145.45 829.588 1141.05 829.588 1136.37V1023.57ZM1022.95 1185V1041.01L1021.63 1049.94L972.85 1185H962.889L913.67 1049.94L912.498 1041.01V1185H893.602V974.941H903.416L967.137 1147.21L967.723 1154.97L968.309 1147.21L1031.88 974.941H1041.84V1185H1022.95ZM1089.89 1185V974.941H1108.79V1185H1089.89ZM1265.23 1185L1177.63 1032.07L1175.88 1022.99V1185H1156.98V974.941H1166.79L1254.39 1128.02L1256.3 1136.95V974.941H1275.19V1185H1265.23ZM1438.52 1185H1432.52L1421.53 1168.15C1416.94 1174.21 1411.38 1179.04 1404.83 1182.66C1398.29 1186.17 1391.01 1187.93 1383.01 1187.93H1372.02C1364.89 1187.93 1358.15 1186.61 1351.8 1183.97C1345.55 1181.24 1340.09 1177.53 1335.4 1172.84C1330.71 1168.15 1327 1162.69 1324.27 1156.44C1321.63 1150.19 1320.31 1143.5 1320.31 1136.37V1023.57C1320.31 1016.45 1321.63 1009.76 1324.27 1003.51C1327 997.256 1330.71 991.787 1335.4 987.1C1340.09 982.412 1345.55 978.75 1351.8 976.113C1358.15 973.379 1364.89 972.012 1372.02 972.012H1386.96C1394.09 972.012 1400.78 973.379 1407.03 976.113C1413.28 978.75 1418.75 982.412 1423.44 987.1C1428.12 991.787 1431.79 997.256 1434.42 1003.51C1437.16 1009.76 1438.52 1016.45 1438.52 1023.57V1032.07L1419.63 1035V1023.57C1419.63 1018.89 1418.75 1014.54 1416.99 1010.54C1415.23 1006.44 1412.84 1002.87 1409.81 999.844C1406.79 996.816 1403.22 994.424 1399.12 992.666C1395.12 990.908 1390.77 990.029 1386.08 990.029H1372.9C1368.21 990.029 1363.82 990.908 1359.71 992.666C1355.71 994.424 1352.15 996.816 1349.02 999.844C1345.99 1002.87 1343.6 1006.44 1341.84 1010.54C1340.09 1014.54 1339.21 1018.89 1339.21 1023.57V1136.37C1339.21 1141.05 1340.09 1145.45 1341.84 1149.55C1343.6 1153.55 1345.99 1157.12 1349.02 1160.24C1352.15 1163.27 1355.71 1165.66 1359.71 1167.42C1363.82 1169.18 1368.21 1170.06 1372.9 1170.06H1386.08C1390.77 1170.06 1395.12 1169.18 1399.12 1167.42C1403.22 1165.66 1406.79 1163.27 1409.81 1160.24C1412.84 1157.12 1415.23 1153.55 1416.99 1149.55C1418.75 1145.45 1419.63 1141.05 1419.63 1136.37V1092.57H1386.08V1074.55H1438.52V1185ZM1667.92 1136.37C1667.92 1143.5 1666.45 1150.19 1663.52 1156.44C1660.69 1162.69 1656.83 1168.15 1651.95 1172.84C1647.17 1177.53 1641.55 1181.24 1635.11 1183.97C1628.76 1186.61 1622.02 1187.93 1614.89 1187.93H1599.8C1592.67 1187.93 1585.89 1186.61 1579.44 1183.97C1573.09 1181.24 1567.48 1177.53 1562.6 1172.84C1557.81 1168.15 1553.95 1162.69 1551.02 1156.44C1548.19 1150.19 1546.78 1143.5 1546.78 1136.37V1128.02L1565.67 1124.94V1136.37C1565.67 1141.05 1566.6 1145.45 1568.46 1149.55C1570.41 1153.55 1573 1157.12 1576.22 1160.24C1579.44 1163.27 1583.15 1165.66 1587.35 1167.42C1591.65 1169.18 1596.14 1170.06 1600.83 1170.06H1614.01C1618.7 1170.06 1623.14 1169.18 1627.34 1167.42C1631.54 1165.66 1635.25 1163.27 1638.47 1160.24C1641.7 1157.12 1644.24 1153.55 1646.09 1149.55C1648.04 1145.45 1649.02 1141.05 1649.02 1136.37V1130.07C1649.02 1122.84 1647.61 1116.84 1644.77 1112.05C1641.94 1107.27 1638.18 1103.21 1633.49 1099.89C1628.81 1096.47 1623.48 1093.59 1617.53 1091.25C1611.67 1088.91 1605.61 1086.56 1599.36 1084.22C1593.11 1081.88 1587.01 1079.29 1581.05 1076.46C1575.19 1073.62 1569.92 1070.11 1565.23 1065.91C1560.54 1061.61 1556.79 1056.39 1553.95 1050.23C1551.12 1044.08 1549.71 1036.51 1549.71 1027.53V1023.57C1549.71 1016.45 1551.02 1009.76 1553.66 1003.51C1556.39 997.256 1560.11 991.787 1564.79 987.1C1569.48 982.412 1574.95 978.75 1581.2 976.113C1587.55 973.379 1594.29 972.012 1601.41 972.012H1614.89C1622.02 972.012 1628.71 973.379 1634.96 976.113C1641.21 978.75 1646.68 982.412 1651.37 987.1C1656.05 991.787 1659.71 997.256 1662.35 1003.51C1665.09 1009.76 1666.45 1016.45 1666.45 1023.57V1028.99L1647.56 1032.07V1023.57C1647.56 1018.89 1646.68 1014.54 1644.92 1010.54C1643.16 1006.44 1640.77 1002.87 1637.74 999.844C1634.71 996.816 1631.15 994.424 1627.05 992.666C1623.04 990.908 1618.7 990.029 1614.01 990.029H1602.29C1597.61 990.029 1593.21 990.908 1589.11 992.666C1585.11 994.424 1581.54 996.816 1578.42 999.844C1575.39 1002.87 1573 1006.44 1571.24 1010.54C1569.48 1014.54 1568.6 1018.89 1568.6 1023.57V1027.53C1568.6 1034.27 1570.02 1039.93 1572.85 1044.52C1575.68 1049.11 1579.44 1053.07 1584.13 1056.39C1588.82 1059.61 1594.09 1062.44 1599.95 1064.88C1605.91 1067.23 1612.01 1069.67 1618.26 1072.21C1624.51 1074.65 1630.56 1077.38 1636.42 1080.41C1642.38 1083.34 1647.7 1087 1652.39 1091.4C1657.08 1095.69 1660.84 1100.97 1663.67 1107.22C1666.5 1113.47 1667.92 1121.08 1667.92 1130.07V1136.37ZM1823.78 1136.37C1823.78 1143.5 1822.41 1150.19 1819.68 1156.44C1817.04 1162.69 1813.38 1168.15 1808.69 1172.84C1804 1177.53 1798.53 1181.24 1792.28 1183.97C1786.03 1186.61 1779.34 1187.93 1772.21 1187.93H1757.27C1750.14 1187.93 1743.41 1186.61 1737.06 1183.97C1730.81 1181.24 1725.34 1177.53 1720.65 1172.84C1715.96 1168.15 1712.25 1162.69 1709.52 1156.44C1706.88 1150.19 1705.56 1143.5 1705.56 1136.37V1023.57C1705.56 1016.45 1706.88 1009.76 1709.52 1003.51C1712.25 997.256 1715.96 991.787 1720.65 987.1C1725.34 982.412 1730.81 978.75 1737.06 976.113C1743.41 973.379 1750.14 972.012 1757.27 972.012H1772.21C1779.34 972.012 1786.03 973.379 1792.28 976.113C1798.53 978.75 1804 982.412 1808.69 987.1C1813.38 991.787 1817.04 997.256 1819.68 1003.51C1822.41 1009.76 1823.78 1016.45 1823.78 1023.57V1136.37ZM1804.88 1023.57C1804.88 1018.89 1804 1014.54 1802.24 1010.54C1800.49 1006.44 1798.09 1002.87 1795.07 999.844C1792.04 996.816 1788.47 994.424 1784.37 992.666C1780.37 990.908 1776.02 990.029 1771.34 990.029H1758.15C1753.46 990.029 1749.07 990.908 1744.97 992.666C1740.96 994.424 1737.4 996.816 1734.28 999.844C1731.25 1002.87 1728.86 1006.44 1727.1 1010.54C1725.34 1014.54 1724.46 1018.89 1724.46 1023.57V1136.37C1724.46 1141.05 1725.34 1145.45 1727.1 1149.55C1728.86 1153.55 1731.25 1157.12 1734.28 1160.24C1737.4 1163.27 1740.96 1165.66 1744.97 1167.42C1749.07 1169.18 1753.46 1170.06 1758.15 1170.06H1771.34C1776.02 1170.06 1780.37 1169.18 1784.37 1167.42C1788.47 1165.66 1792.04 1163.27 1795.07 1160.24C1798.09 1157.12 1800.49 1153.55 1802.24 1149.55C1804 1145.45 1804.88 1141.05 1804.88 1136.37V1023.57ZM1984.03 1136.37C1984.03 1143.5 1982.66 1150.19 1979.93 1156.44C1977.29 1162.69 1973.63 1168.15 1968.94 1172.84C1964.26 1177.53 1958.79 1181.24 1952.54 1183.97C1946.29 1186.61 1939.6 1187.93 1932.47 1187.93H1917.53C1910.4 1187.93 1903.66 1186.61 1897.31 1183.97C1891.06 1181.24 1885.59 1177.53 1880.91 1172.84C1876.22 1168.15 1872.51 1162.69 1869.77 1156.44C1867.14 1150.19 1865.82 1143.5 1865.82 1136.37V1023.57C1865.82 1016.45 1867.14 1009.76 1869.77 1003.51C1872.51 997.256 1876.22 991.787 1880.91 987.1C1885.59 982.412 1891.06 978.75 1897.31 976.113C1903.66 973.379 1910.4 972.012 1917.53 972.012H1932.47C1939.6 972.012 1946.29 973.379 1952.54 976.113C1958.79 978.75 1964.26 982.412 1968.94 987.1C1973.63 991.787 1977.29 997.256 1979.93 1003.51C1982.66 1009.76 1984.03 1016.45 1984.03 1023.57V1136.37ZM1965.13 1023.57C1965.13 1018.89 1964.26 1014.54 1962.5 1010.54C1960.74 1006.44 1958.35 1002.87 1955.32 999.844C1952.29 996.816 1948.73 994.424 1944.63 992.666C1940.62 990.908 1936.28 990.029 1931.59 990.029H1918.41C1913.72 990.029 1909.32 990.908 1905.22 992.666C1901.22 994.424 1897.65 996.816 1894.53 999.844C1891.5 1002.87 1889.11 1006.44 1887.35 1010.54C1885.59 1014.54 1884.71 1018.89 1884.71 1023.57V1136.37C1884.71 1141.05 1885.59 1145.45 1887.35 1149.55C1889.11 1153.55 1891.5 1157.12 1894.53 1160.24C1897.65 1163.27 1901.22 1165.66 1905.22 1167.42C1909.32 1169.18 1913.72 1170.06 1918.41 1170.06H1931.59C1936.28 1170.06 1940.62 1169.18 1944.63 1167.42C1948.73 1165.66 1952.29 1163.27 1955.32 1160.24C1958.35 1157.12 1960.74 1153.55 1962.5 1149.55C1964.26 1145.45 1965.13 1141.05 1965.13 1136.37V1023.57ZM2137.4 1185L2049.8 1032.07L2048.04 1022.99V1185H2029.15V974.941H2038.96L2126.56 1128.02L2128.46 1136.95V974.941H2147.36V1185H2137.4ZM2208.15 1121.43H2197.61L2189.55 974.941H2216.21L2208.15 1121.43ZM2191.6 1185V1162.44H2214.16V1185H2191.6Z" fill="white"/>
</svg>
